<?xml version="1.0" encoding="utf-8"?>
<!-- Generator: Adobe Illustrator 27.8.1, SVG Export Plug-In . SVG Version: 6.00 Build 0)  -->
<svg version="1.1" id="Layer_1" xmlns="http://www.w3.org/2000/svg" xmlns:xlink="http://www.w3.org/1999/xlink" x="0px" y="0px"
	 viewBox="0 0 32 32" style="enable-background:new 0 0 32 32;" xml:space="preserve">
<style type="text/css">
	.st0{fill:#FFCDD2;}
	.st1{fill:#2338A1;}
	.st2{fill:#997829;}
	.st3{fill:#AE9143;}
	.st4{fill:#A1802F;}
	.st5{fill:#FFFFFF;}
	.st6{fill:#3F51B5;}
	.st7{fill:none;}
</style>
<polygon class="st0" points="13.2,1.5 18.7,1.5 18.7,2.9 21.4,2.9 21.4,4.2 22.8,4.2 22.8,5.6 24.2,5.6 24.2,6.9 25.6,6.9 25.6,9.8 
	26.9,9.8 26.9,12.6 28.3,12.6 28.3,20.7 27,20.8 26.9,23.6 24.2,23.6 24.2,27 7.6,26.7 7.6,23.6 4.9,23.6 4.9,20.8 3.5,20.8 
	3.5,12.8 4.2,12.2 4.9,9.8 6.2,6.9 7.6,5.6 9,4.2 10.4,2.9 "/>
<rect x="3.5" y="23.6" class="st1" width="1.4" height="2.7"/>
<rect x="13.2" y="0" width="5.5" height="1.3"/>
<rect x="10.4" y="1.5" width="2.8" height="1.3"/>
<rect x="9" y="2.9" width="1.4" height="1.3"/>
<rect x="7.6" y="4.2" width="1.4" height="1.4"/>
<rect x="4.9" y="6.9" width="1.4" height="2.9"/>
<rect x="3.5" y="9.8" width="1.4" height="2.8"/>
<rect x="2.1" y="12.6" width="1.4" height="8.1"/>
<rect x="3.5" y="20.8" width="1.4" height="2.9"/>
<rect x="2.1" y="23.6" width="1.4" height="5.3"/>
<rect x="4.9" y="23.6" width="1.4" height="5.3"/>
<rect x="3.5" y="29" width="1.4" height="1.4"/>
<rect x="6.2" y="5.6" width="1.4" height="1.3"/>
<rect x="13.2" y="0.2" width="5.5" height="1.3"/>
<rect x="18.7" y="1.6" width="2.7" height="1.3"/>
<rect x="21.4" y="2.9" width="1.4" height="1.3"/>
<rect x="22.8" y="4.2" width="1.4" height="1.4"/>
<rect x="25.6" y="6.9" width="1.4" height="2.9"/>
<rect x="26.9" y="9.8" width="1.4" height="2.8"/>
<rect x="28.3" y="12.6" width="1.4" height="8.1"/>
<rect x="27" y="20.8" width="1.4" height="2.8"/>
<rect x="28.4" y="23.6" width="1.4" height="5.5"/>
<rect x="25.6" y="23.6" width="1.4" height="5.5"/>
<rect x="27" y="29.1" width="1.4" height="1.4"/>
<rect x="24.2" y="5.6" width="1.4" height="1.3"/>
<rect x="6.2" y="26.3" width="1.4" height="1.4"/>
<rect x="7.6" y="27.7" width="1.4" height="1.4"/>
<rect x="9" y="29.1" width="1.4" height="2.9"/>
<rect x="13.1" y="29.1" width="1.4" height="2.9"/>
<rect x="17.4" y="29.1" width="1.4" height="2.9"/>
<rect x="14.4" y="29.1" width="3.3" height="1.4"/>
<rect x="24.2" y="26.3" width="1.4" height="1.4"/>
<rect x="22.8" y="27.7" width="1.4" height="1.4"/>
<rect x="21.5" y="29.1" width="1.4" height="2.9"/>
<rect x="13.1" y="20.9" width="5.7" height="1.4"/>
<rect x="15.9" y="18" width="1.4" height="1.4"/>
<rect x="8.9" y="11.1" width="4.1" height="1.4"/>
<rect x="20.1" y="9.7" width="2.9" height="1.4"/>
<rect x="18.8" y="11.1" width="1.4" height="1.4"/>
<rect x="6.2" y="12.5" class="st2" width="19.3" height="1.4"/>
<rect x="7.6" y="13.9" class="st3" width="7" height="1.4"/>
<rect x="7.6" y="15.2" class="st4" width="7" height="1.4"/>
<rect x="7.6" y="16.6" class="st2" width="7" height="1.4"/>
<rect x="17.3" y="13.9" class="st3" width="7" height="1.4"/>
<rect x="17.3" y="15.3" class="st4" width="7" height="1.4"/>
<rect x="6.2" y="23.6" class="st1" width="1.4" height="2.7"/>
<rect x="10.4" y="29.1" class="st1" width="1.4" height="2.9"/>
<rect x="9" y="27.7" class="st1" width="1.4" height="1.4"/>
<rect x="7.6" y="26.3" class="st1" width="1.4" height="1.4"/>
<rect x="3.5" y="27.6" class="st0" width="1.4" height="1.4"/>
<rect x="3.5" y="26.3" class="st5" width="1.4" height="1.4"/>
<rect x="11.8" y="24.9" class="st1" width="1.4" height="1.4"/>
<rect x="27" y="23.6" class="st1" width="1.4" height="2.7"/>
<rect x="24.2" y="23.6" class="st1" width="1.4" height="2.7"/>
<rect x="20.1" y="29.1" class="st1" width="1.4" height="2.9"/>
<rect x="21.4" y="27.7" class="st1" width="1.4" height="1.4"/>
<rect x="22.8" y="26.3" class="st1" width="1.4" height="1.4"/>
<rect x="27" y="27.7" class="st0" width="1.4" height="1.4"/>
<rect x="27" y="26.3" class="st5" width="1.4" height="1.4"/>
<rect x="18.8" y="24.9" class="st1" width="1.4" height="1.4"/>
<rect x="7.6" y="24.9" class="st6" width="4.1" height="1.4"/>
<rect x="9" y="26.3" class="st6" width="4.1" height="1.4"/>
<rect x="10.4" y="27.7" class="st6" width="8.4" height="1.4"/>
<rect x="11.7" y="29.1" class="st6" width="1.4" height="2.9"/>
<rect x="20.1" y="24.9" class="st6" width="4.1" height="1.4"/>
<rect x="18.7" y="26.3" class="st6" width="4.1" height="1.4"/>
<rect x="13" y="27.7" class="st6" width="8.4" height="1.4"/>
<rect x="18.8" y="29.1" class="st6" width="1.4" height="2.9"/>
<rect x="13.1" y="26.3" class="st1" width="5.6" height="1.4"/>
<rect x="3.5" y="18.2" class="st5" width="1.4" height="2.6"/>
<rect x="4.9" y="19.5" class="st5" width="2.7" height="4.2"/>
<rect x="7.6" y="22.3" class="st5" width="2.8" height="2.6"/>
<rect x="10.4" y="23.6" class="st5" width="1.4" height="1.3"/>
<rect x="26.9" y="18.2" class="st5" width="1.4" height="2.6"/>
<rect x="24.2" y="19.5" class="st5" width="2.7" height="4.2"/>
<rect x="21.4" y="22.3" class="st5" width="2.8" height="2.6"/>
<rect x="20" y="23.6" class="st7" width="1.4" height="1.3"/>
<rect x="17.3" y="16.6" class="st2" width="7" height="1.4"/>
<rect x="20.2" y="23.6" class="st5" width="1.4" height="1.3"/>
</svg>
